<svg width="89" height="36" viewBox="0 0 89 36" fill="none" xmlns="http://www.w3.org/2000/svg">
<path d="M0.9 3.96V18H9.378C12.816 18 13.842 17.262 13.842 14.31C13.842 12.186 12.834 11.124 10.746 10.908C12.474 10.656 13.338 9.63 13.338 7.614C13.338 4.698 12.42 3.96 9.378 3.96H0.9ZM4.68 15.12V12.312H8.226C9.396 12.312 9.9 12.744 9.9 13.734C9.9 14.976 9.738 15.12 8.226 15.12H4.68ZM4.68 9.432V6.84H7.866C9.252 6.84 9.396 6.966 9.396 8.154C9.396 9.054 8.946 9.432 7.866 9.432H4.68ZM23.4827 3.96H15.4547V18H19.2347V13.05H22.0427C24.0047 13.05 24.2027 13.212 24.2027 14.76V18H28.1627V14.544C28.1627 12.744 27.2087 11.916 25.3367 11.718C27.2987 11.448 28.1627 10.35 28.1627 8.028C28.1627 4.77 27.2267 3.96 23.4827 3.96ZM19.2347 10.17V7.02H22.5107C24.2027 7.02 24.3827 7.182 24.3827 8.568C24.3827 10.008 24.2027 10.17 22.5107 10.17H19.2347ZM29.7809 3.96V18H41.3369V14.76H33.5609V12.42H40.5809V9.36H33.5609V7.2H41.3009V3.96H29.7809ZM42.9645 18H46.7445V10.35H46.8525L53.0805 18H56.6445V3.96H52.8645V11.628H52.7565L46.5465 3.96H42.9645V18ZM62.2308 7.2H65.3088C67.8648 7.2 68.1528 7.578 68.1528 10.98C68.1528 14.382 67.8648 14.76 65.3088 14.76H62.2308L62.2128 10.98L62.2308 7.2ZM58.4508 18H65.7048C70.8348 18 72.1128 16.596 72.1128 10.98C72.1128 5.364 70.8348 3.96 65.7048 3.96H58.4508V18ZM83.6304 3.96H77.3664L72.7404 18H76.8084L77.6544 15.264H83.0544L83.8104 18H88.1304L83.6304 3.96ZM78.6264 12.204L80.3364 7.02H80.4444L82.1184 12.204H78.6264Z" fill="white"/>
<path d="M0 20.25H88.2204V21.15H0V20.25Z" fill="white"/>
<path d="M18.3 32.104C16.692 32.104 16.5 31.984 16.5 30.856H13.86C13.86 33.484 14.784 34.144 18.372 34.144C21.864 34.144 22.764 33.616 22.764 31.48C22.764 29.596 21.828 28.948 18.324 28.264C17.052 28 16.704 27.82 16.704 27.328C16.704 26.62 16.884 26.536 18.372 26.536C19.884 26.536 20.064 26.668 20.064 27.916H22.704C22.704 25.18 21.816 24.496 18.372 24.496C14.952 24.496 14.064 25.06 14.064 27.304C14.064 29.044 14.832 29.62 17.892 30.232C19.656 30.58 20.124 30.808 20.124 31.348C20.124 32.032 19.932 32.104 18.3 32.104ZM26.0491 34H28.5691V26.8H31.4611V24.64H23.1811V26.8H26.0491V34ZM40.3074 30.16V24.64H37.7874V30.16C37.7874 31.912 37.6194 32.104 36.1554 32.104C34.6914 32.104 34.5234 31.912 34.5234 30.16V24.64H32.0034V30.16C32.0034 33.352 32.8314 34.144 36.1554 34.144C39.4794 34.144 40.3074 33.352 40.3074 30.16ZM43.913 26.8H45.965C47.669 26.8 47.861 27.052 47.861 29.32C47.861 31.588 47.669 31.84 45.965 31.84H43.913L43.901 29.32L43.913 26.8ZM41.393 34H46.229C49.649 34 50.501 33.064 50.501 29.32C50.501 25.576 49.649 24.64 46.229 24.64H41.393V34ZM51.4594 34H53.9794V24.64H51.4594V34ZM59.7942 26.536C61.7982 26.536 62.0142 26.812 62.0142 29.32C62.0142 31.828 61.7982 32.104 59.7942 32.104C57.7902 32.104 57.5742 31.828 57.5742 29.32C57.5742 26.812 57.7902 26.536 59.7942 26.536ZM54.9342 29.32C54.9342 33.184 55.9062 34.144 59.7942 34.144C63.6822 34.144 64.6542 33.184 64.6542 29.32C64.6542 25.456 63.6822 24.496 59.7942 24.496C55.9062 24.496 54.9342 25.456 54.9342 29.32ZM69.8156 32.104C68.2076 32.104 68.0156 31.984 68.0156 30.856H65.3756C65.3756 33.484 66.2996 34.144 69.8876 34.144C73.3796 34.144 74.2796 33.616 74.2796 31.48C74.2796 29.596 73.3436 28.948 69.8396 28.264C68.5676 28 68.2196 27.82 68.2196 27.328C68.2196 26.62 68.3996 26.536 69.8876 26.536C71.3996 26.536 71.5796 26.668 71.5796 27.916H74.2196C74.2196 25.18 73.3316 24.496 69.8876 24.496C66.4676 24.496 65.5796 25.06 65.5796 27.304C65.5796 29.044 66.3476 29.62 69.4076 30.232C71.1716 30.58 71.6396 30.808 71.6396 31.348C71.6396 32.032 71.4476 32.104 69.8156 32.104Z" fill="white"/>
</svg>
